<svg id="Layer_1" data-name="Layer 1" xmlns="http://www.w3.org/2000/svg" viewBox="0 0 500 500"><defs><style>.cls-1{fill:#fff;}</style></defs><path class="cls-1" d="M204.64,338.05c-4.1.39-8.37.72-13,.92-12.25.6-29.27-1.14-34.71-7q-9.51-10.26-9.51-29.78V175.1h80.12c10.51-20.47,23.77-37.23,39.59-50H147.46V35H84.92v90.06H33.69v50H84.92V303.69q0,44,24,67c15.21,14.58,36.51,22.14,63.76,22.87l0,.09c.67,0,1.3,0,2,0s1.54.08,2.35.08c1.72,0,3.41-.1,5.1-.16l2.37-.08c.41,0,.83,0,1.24-.05,11.59-.37,22-1.24,31.42-2.48A247.49,247.49,0,0,1,204.64,338.05Z"/><path class="cls-1" d="M288,444.93q-26.57-20.06-41.87-58.52T230.83,295.1q0-52.86,15.29-91.33T288,145.26a101.16,101.16,0,0,1,121,0q26.76,20.06,42.07,58.51t15.29,91.33q0,52.84-15.29,91.31T409,444.93A98.41,98.41,0,0,1,348.37,465Q314.56,465,288,444.93Zm102.52-66.22Q406,350.69,406,295.1t-15.47-83.63q-15.47-28-42.12-28-26.31,0-41.77,28T291.16,295.1q0,55.59,15.46,83.61t41.77,28Q375,406.74,390.51,378.71Z"/></svg>